<mxfile host="app.diagrams.net" agent="Mozilla/5.0 (Windows NT 10.0; Win64; x64) AppleWebKit/537.36 (KHTML, like Gecko) Chrome/130.0.0.0 Safari/537.36" version="24.8.3">
  <diagram name="Página-1" id="lO98ospwAkH4Ig_APkjj">
    <mxGraphModel dx="453" dy="452" grid="1" gridSize="10" guides="1" tooltips="1" connect="1" arrows="1" fold="1" page="1" pageScale="1" pageWidth="827" pageHeight="1169" math="0" shadow="0">
      <root>
        <mxCell id="0" />
        <mxCell id="1" parent="0" />
        <mxCell id="ythelcwdL6SJHOO8mkW6-3" value="" style="edgeStyle=orthogonalEdgeStyle;rounded=0;orthogonalLoop=1;jettySize=auto;html=1;" edge="1" parent="1" target="ythelcwdL6SJHOO8mkW6-2">
          <mxGeometry relative="1" as="geometry">
            <mxPoint x="60" y="160" as="sourcePoint" />
          </mxGeometry>
        </mxCell>
        <mxCell id="ythelcwdL6SJHOO8mkW6-1" value="Aluno" style="shape=umlActor;verticalLabelPosition=bottom;verticalAlign=top;html=1;outlineConnect=0;" vertex="1" parent="1">
          <mxGeometry x="30" y="160" width="30" height="60" as="geometry" />
        </mxCell>
        <mxCell id="ythelcwdL6SJHOO8mkW6-2" value="&lt;div&gt;&lt;br&gt;&lt;/div&gt;&lt;div&gt;Ver Histórico de Cursos&lt;/div&gt;" style="ellipse;whiteSpace=wrap;html=1;verticalAlign=top;" vertex="1" parent="1">
          <mxGeometry x="160" y="130" width="110" height="60" as="geometry" />
        </mxCell>
        <mxCell id="ythelcwdL6SJHOO8mkW6-20" value="" style="edgeStyle=orthogonalEdgeStyle;rounded=0;orthogonalLoop=1;jettySize=auto;html=1;" edge="1" parent="1" source="ythelcwdL6SJHOO8mkW6-17" target="ythelcwdL6SJHOO8mkW6-19">
          <mxGeometry relative="1" as="geometry" />
        </mxCell>
        <mxCell id="ythelcwdL6SJHOO8mkW6-26" style="edgeStyle=orthogonalEdgeStyle;rounded=0;orthogonalLoop=1;jettySize=auto;html=1;endArrow=none;endFill=0;" edge="1" parent="1" source="ythelcwdL6SJHOO8mkW6-17">
          <mxGeometry relative="1" as="geometry">
            <mxPoint x="50" y="350" as="targetPoint" />
          </mxGeometry>
        </mxCell>
        <mxCell id="ythelcwdL6SJHOO8mkW6-17" value="Professor" style="shape=umlActor;verticalLabelPosition=bottom;verticalAlign=top;html=1;outlineConnect=0;" vertex="1" parent="1">
          <mxGeometry x="30" y="250" width="30" height="60" as="geometry" />
        </mxCell>
        <mxCell id="ythelcwdL6SJHOO8mkW6-19" value="&lt;div&gt;&lt;br&gt;&lt;/div&gt;&lt;div&gt;&lt;span style=&quot;background-color: initial;&quot;&gt;Visualizar Perfil do Instrutor&lt;/span&gt;&lt;/div&gt;" style="ellipse;whiteSpace=wrap;html=1;verticalAlign=top;" vertex="1" parent="1">
          <mxGeometry x="160" y="245" width="120" height="70" as="geometry" />
        </mxCell>
        <mxCell id="ythelcwdL6SJHOO8mkW6-24" value="" style="edgeStyle=orthogonalEdgeStyle;rounded=0;orthogonalLoop=1;jettySize=auto;html=1;" edge="1" target="ythelcwdL6SJHOO8mkW6-25" parent="1">
          <mxGeometry relative="1" as="geometry">
            <mxPoint x="50" y="350" as="sourcePoint" />
          </mxGeometry>
        </mxCell>
        <mxCell id="ythelcwdL6SJHOO8mkW6-25" value="&lt;div&gt;&lt;br&gt;&lt;/div&gt;&lt;div&gt;&lt;span style=&quot;background-color: initial;&quot;&gt;Visualizar Perfil do Instrutor&lt;/span&gt;&lt;/div&gt;" style="ellipse;whiteSpace=wrap;html=1;verticalAlign=top;" vertex="1" parent="1">
          <mxGeometry x="160" y="320" width="120" height="70" as="geometry" />
        </mxCell>
        <mxCell id="ythelcwdL6SJHOO8mkW6-28" style="edgeStyle=orthogonalEdgeStyle;rounded=0;orthogonalLoop=1;jettySize=auto;html=1;endArrow=none;endFill=0;" edge="1" parent="1" source="ythelcwdL6SJHOO8mkW6-27">
          <mxGeometry relative="1" as="geometry">
            <mxPoint x="80" y="660" as="targetPoint" />
          </mxGeometry>
        </mxCell>
        <mxCell id="ythelcwdL6SJHOO8mkW6-27" value="Usuário" style="shape=umlActor;verticalLabelPosition=bottom;verticalAlign=top;html=1;outlineConnect=0;" vertex="1" parent="1">
          <mxGeometry x="30" y="390" width="30" height="60" as="geometry" />
        </mxCell>
        <mxCell id="ythelcwdL6SJHOO8mkW6-29" value="&lt;span style=&quot;white-space: pre;&quot;&gt;&#x9;&lt;/span&gt;&lt;div&gt;Buscar Cursos&lt;/div&gt;" style="ellipse;whiteSpace=wrap;html=1;verticalAlign=top;" vertex="1" parent="1">
          <mxGeometry x="180" y="410" width="120" height="70" as="geometry" />
        </mxCell>
        <mxCell id="ythelcwdL6SJHOO8mkW6-30" value="" style="edgeStyle=orthogonalEdgeStyle;rounded=0;orthogonalLoop=1;jettySize=auto;html=1;" edge="1" target="ythelcwdL6SJHOO8mkW6-29" parent="1">
          <mxGeometry relative="1" as="geometry">
            <mxPoint x="80" y="445" as="sourcePoint" />
          </mxGeometry>
        </mxCell>
        <mxCell id="ythelcwdL6SJHOO8mkW6-32" value="" style="edgeStyle=orthogonalEdgeStyle;rounded=0;orthogonalLoop=1;jettySize=auto;html=1;" edge="1" target="ythelcwdL6SJHOO8mkW6-33" parent="1">
          <mxGeometry relative="1" as="geometry">
            <mxPoint x="80" y="525" as="sourcePoint" />
          </mxGeometry>
        </mxCell>
        <mxCell id="ythelcwdL6SJHOO8mkW6-33" value="&lt;span style=&quot;white-space: pre;&quot;&gt;&#x9;&lt;/span&gt;&lt;div&gt;Visualizar Detalhes do Curso&lt;/div&gt;" style="ellipse;whiteSpace=wrap;html=1;verticalAlign=top;" vertex="1" parent="1">
          <mxGeometry x="180" y="490" width="120" height="60" as="geometry" />
        </mxCell>
        <mxCell id="ythelcwdL6SJHOO8mkW6-34" value="&lt;span style=&quot;white-space: pre;&quot;&gt;&#x9;&lt;/span&gt;&lt;div&gt;Comprar Curso Avulso&lt;/div&gt;" style="ellipse;whiteSpace=wrap;html=1;verticalAlign=top;" vertex="1" parent="1">
          <mxGeometry x="180" y="560" width="120" height="60" as="geometry" />
        </mxCell>
        <mxCell id="ythelcwdL6SJHOO8mkW6-35" value="" style="edgeStyle=orthogonalEdgeStyle;rounded=0;orthogonalLoop=1;jettySize=auto;html=1;" edge="1" target="ythelcwdL6SJHOO8mkW6-34" parent="1">
          <mxGeometry relative="1" as="geometry">
            <mxPoint x="80" y="595" as="sourcePoint" />
          </mxGeometry>
        </mxCell>
        <mxCell id="ythelcwdL6SJHOO8mkW6-36" value="&lt;span style=&quot;white-space: pre;&quot;&gt;&#x9;&lt;/span&gt;&lt;div&gt;Assinar Plano de Assinatura&lt;/div&gt;" style="ellipse;whiteSpace=wrap;html=1;verticalAlign=top;" vertex="1" parent="1">
          <mxGeometry x="180" y="620" width="120" height="60" as="geometry" />
        </mxCell>
        <mxCell id="ythelcwdL6SJHOO8mkW6-37" value="" style="edgeStyle=orthogonalEdgeStyle;rounded=0;orthogonalLoop=1;jettySize=auto;html=1;" edge="1" target="ythelcwdL6SJHOO8mkW6-36" parent="1">
          <mxGeometry relative="1" as="geometry">
            <mxPoint x="80" y="655" as="sourcePoint" />
          </mxGeometry>
        </mxCell>
        <mxCell id="ythelcwdL6SJHOO8mkW6-39" value="" style="edgeStyle=orthogonalEdgeStyle;rounded=0;orthogonalLoop=1;jettySize=auto;html=1;" edge="1" parent="1" target="ythelcwdL6SJHOO8mkW6-40">
          <mxGeometry relative="1" as="geometry">
            <mxPoint x="70" y="215" as="sourcePoint" />
          </mxGeometry>
        </mxCell>
        <mxCell id="ythelcwdL6SJHOO8mkW6-40" value="&lt;div&gt;Avaliar Curso&lt;/div&gt;" style="ellipse;whiteSpace=wrap;html=1;verticalAlign=top;" vertex="1" parent="1">
          <mxGeometry x="170" y="200" width="110" height="30" as="geometry" />
        </mxCell>
      </root>
    </mxGraphModel>
  </diagram>
</mxfile>
